<mxfile host="app.diagrams.net" modified="2024-06-07T16:41:54.123Z" agent="Mozilla/5.0 (Macintosh; Intel Mac OS X 10_15_7) AppleWebKit/537.36 (KHTML, like Gecko) Chrome/125.0.0.0 Safari/537.36" version="24.4.13" etag="R_DKfErjfO4XMzOv3x2h" type="github">
  <diagram name="Trang-1" id="lycOfyMc7zxxJLm5PT-9">
    <mxGraphModel>
      <root>
        <mxCell id="0" />
        <mxCell id="1" parent="0" />
      </root>
    </mxGraphModel>
  </diagram>
</mxfile>
